<svg xmlns="http://www.w3.org/2000/svg" style="display:none">
<symbol id="bolt" viewBox="0 0 24 24" fill="none" stroke="currentColor" stroke-width="1.75" stroke-linecap="round" stroke-linejoin="round">
  <polygon points="13 2 4 14 11 14 10 22 20 9 13 9 13 2"/>
</symbol>
<symbol id="snowflake" viewBox="0 0 24 24" fill="none" stroke="currentColor" stroke-width="1.75" stroke-linecap="round" stroke-linejoin="round">
  <line x1="12" y1="2" x2="12" y2="22"/>
  <line x1="4" y1="7" x2="20" y2="17"/>
  <line x1="20" y1="7" x2="4" y2="17"/>
  <polyline points="9 4 12 2 15 4"/>
  <polyline points="9 20 12 22 15 20"/>
  <polyline points="4.5 9.5 4 7 6.7 6.2"/>
  <polyline points="17.3 17.8 20 17 19.5 14.5"/>
  <polyline points="19.5 9.5 20 7 17.3 6.2"/>
  <polyline points="6.7 17.8 4 17 4.5 14.5"/>
</symbol>
<symbol id="coins" viewBox="0 0 24 24" fill="none" stroke="currentColor" stroke-width="1.75" stroke-linecap="round" stroke-linejoin="round">
  <ellipse cx="9" cy="8" rx="6" ry="3.5"/>
  <path d="M3 8v4c0 1.93 2.69 3.5 6 3.5s6-1.57 6-3.5V8"/>
  <path d="M3 12v4c0 1.93 2.69 3.5 6 3.5 2.4 0 4.5-.86 5.4-2.1"/>
  <path d="M15.5 9.3c2.55.3 4.5 1.66 4.5 3.2s-1.95 2.9-4.5 3.2"/>
  <path d="M15.5 16.3c2.55.3 4.5 1.66 4.5 3.2 0 1.93-2.69 3.5-6 3.5-2.4 0-4.5-.86-5.4-2.1"/>
</symbol>
<symbol id="chat" viewBox="0 0 24 24" fill="none" stroke="currentColor" stroke-width="1.75" stroke-linecap="round" stroke-linejoin="round">
  <path d="M4 4h16v12H8l-4 4V4z"/>
</symbol>
<symbol id="wrench" viewBox="0 0 24 24" fill="none" stroke="currentColor" stroke-width="1.75" stroke-linecap="round" stroke-linejoin="round">
  <path d="M14.7 6.3a4 4 0 0 0-5.6 4.9L3 17.3V21h3.7l6.1-6.1a4 4 0 0 0 4.9-5.6l-2.9 2.9-2.1-2.1 2.9-2.9z"/>
</symbol>
<symbol id="radar" viewBox="0 0 24 24" fill="none" stroke="currentColor" stroke-width="1.75" stroke-linecap="round" stroke-linejoin="round">
  <circle cx="12" cy="12" r="9"/>
  <circle cx="12" cy="12" r="5.2"/>
  <circle cx="12" cy="12" r="1.4"/>
  <path d="M12 12 19 6"/>
</symbol>
<symbol id="gear" viewBox="0 0 24 24" fill="none" stroke="currentColor" stroke-width="1.75" stroke-linecap="round" stroke-linejoin="round">
  <circle cx="12" cy="12" r="3.2"/>
  <path d="M12 3.5v2.4M12 18.1v2.4M20.5 12h-2.4M5.9 12H3.5M17.66 6.34l-1.7 1.7M8.04 15.96l-1.7 1.7M17.66 17.66l-1.7-1.7M8.04 8.04l-1.7-1.7"/>
</symbol>
<symbol id="mic" viewBox="0 0 24 24" fill="none" stroke="currentColor" stroke-width="1.75" stroke-linecap="round" stroke-linejoin="round">
  <rect x="9" y="2.5" width="6" height="11" rx="3"/>
  <path d="M5.5 11a6.5 6.5 0 0 0 13 0"/>
  <line x1="12" y1="17.5" x2="12" y2="21.5"/>
  <line x1="8.5" y1="21.5" x2="15.5" y2="21.5"/>
</symbol>
<symbol id="play" viewBox="0 0 24 24" fill="none" stroke="currentColor" stroke-width="1.75" stroke-linecap="round" stroke-linejoin="round">
  <polygon points="6 3.5 20 12 6 20.5 6 3.5"/>
</symbol>
<symbol id="check" viewBox="0 0 24 24" fill="none" stroke="currentColor" stroke-width="1.75" stroke-linecap="round" stroke-linejoin="round">
  <polyline points="4 12.5 9.5 18 20 5.5"/>
</symbol>
<symbol id="x" viewBox="0 0 24 24" fill="none" stroke="currentColor" stroke-width="1.75" stroke-linecap="round" stroke-linejoin="round">
  <line x1="5.5" y1="5.5" x2="18.5" y2="18.5"/>
  <line x1="18.5" y1="5.5" x2="5.5" y2="18.5"/>
</symbol>
<symbol id="flame" viewBox="0 0 24 24" fill="none" stroke="currentColor" stroke-width="1.75" stroke-linecap="round" stroke-linejoin="round">
  <path d="M12 2.5c1 3 4 4.6 4 8.4a4 4 0 1 1-8 0c0-.9.3-1.6.7-2.3.4.9 1.2 1.5 2 1.1-.9-2.1.2-4.3 1.3-7.2z"/>
  <path d="M8.3 13.5c-.3 1-.5 1.9-.5 2.7a4.2 4.2 0 0 0 8.4 0c0-1.9-.7-3-1.4-4.1"/>
</symbol>
<symbol id="doc" viewBox="0 0 24 24" fill="none" stroke="currentColor" stroke-width="1.75" stroke-linecap="round" stroke-linejoin="round">
  <path d="M6 2.5h9l4 4v15H6V2.5z"/>
  <polyline points="15 2.5 15 6.5 19 6.5"/>
  <line x1="9" y1="12" x2="16" y2="12"/>
  <line x1="9" y1="16" x2="16" y2="16"/>
</symbol>
<symbol id="chart" viewBox="0 0 24 24" fill="none" stroke="currentColor" stroke-width="1.75" stroke-linecap="round" stroke-linejoin="round">
  <line x1="3.5" y1="21" x2="20.5" y2="21"/>
  <rect x="5.5" y="13" width="3.2" height="8"/>
  <rect x="10.4" y="8.5" width="3.2" height="12.5"/>
  <rect x="15.3" y="3.5" width="3.2" height="17.5"/>
</symbol>
<symbol id="phone" viewBox="0 0 24 24" fill="none" stroke="currentColor" stroke-width="1.75" stroke-linecap="round" stroke-linejoin="round">
  <path d="M5.5 3h3.2l1.3 4.5-2 1.6a13 13 0 0 0 6.9 6.9l1.6-2 4.5 1.3v3.2c0 1-.9 1.8-1.9 1.6C11.9 18.9 5.1 12.1 4 5.9 3.8 4.9 4.6 4 5.5 4z"/>
</symbol>
<symbol id="moon" viewBox="0 0 24 24" fill="none" stroke="currentColor" stroke-width="1.75" stroke-linecap="round" stroke-linejoin="round">
  <path d="M20 14.5A8.5 8.5 0 1 1 9.5 4a6.8 6.8 0 0 0 10.5 10.5z"/>
</symbol>
</svg>
